<?xml version="1.0" encoding="utf-8" standalone="no"?>
<svg xmlns="http://www.w3.org/2000/svg" version="1.1" width="96px" height="124px">
  <style type="text/css">
#background {
  fill: none;
}
.arrows {
  fill: #000;
  stroke: none;
}
.selected>.arrows {
  fill: #fff;
}
.checkmark {
  fill: #000;
  font-family: sans-serif;
  font-size: 10pt;
  text-anchor: middle;
}
.trash {
  fill: #888;
}
.bug {
  fill: #888;
}
.zoom {
  fill: none;
  stroke: #888;
  stroke-width: 2;
  stroke-linecap: round;
}
.zoom>.center {
  fill: #888;
  stroke-width: 0;
}
  </style>
  <rect id="background" width="96" height="124" x="0" y="0" />

  <g>
    <path class="arrows" d="M 13,1.5 13,14.5 1.74,8 z" />
    <path class="arrows" d="M 17.5,3 30.5,3 24,14.26 z" />
    <path class="arrows" d="M 35,1.5 35,14.5 46.26,8 z" />
  </g>
  <g class="selected" transform="translate(0, 16)">
    <path class="arrows" d="M 13,1.5 13,14.5 1.74,8 z" />
    <path class="arrows" d="M 17.5,3 30.5,3 24,14.26 z" />
    <path class="arrows" d="M 35,1.5 35,14.5 46.26,8 z" />
  </g>

  <text class="checkmark" x="55.5" y="28">&#10003;</text>

  <g class="bug">
  <svg xmlns="http://www.w3.org/2000/svg" version="1.1" x="64" y="0" width="32" height="32" viewBox="0 0 412.8 412.8" xml:space="preserve">
  <path d="M376.5 311c-1.6-29.2-25-52.6-54.1-54.1v-21.7h-6.2v21.7c-29.2 1.6-52.6 25-54.1 54.1h-21.5v6.2h21.5c1.6 29.2 25 52.6 54.1 54.1v21.7h6.2v-21.7c29.2-1.6 52.6-25 54.1-54.1h26.1v-6.2H376.5zM316.1 365.1c-25.7-1.6-46.3-22.2-47.9-47.9h47.9V365.1zM316.1 311h-47.9c1.6-25.7 22.2-46.3 47.9-47.9V311zM322.4 365.1v-47.9h47.9C368.7 343 348.1 363.6 322.4 365.1zM322.4 311v-47.9c25.7 1.6 46.3 22.2 47.9 47.9H322.4zM291.3 90c-0.8-4.7 2.4-9.1 7.1-9.9 2.1-0.3 50.6-8.7 53.5-50.5 0.3-4.7 4.4-8.3 9.2-8 4.7 0.3 8.3 4.4 8 9.2 -3.9 55.5-67.3 66.2-67.9 66.3 -0.4 0.1-0.9 0.1-1.4 0.1C295.6 97.2 292 94.2 291.3 90zM32.4 30.8c-0.3-4.7 3.2-8.8 8-9.2 4.9-0.3 8.8 3.3 9.2 8 2.9 41.8 51.4 50.2 53.5 50.5 4.7 0.8 7.9 5.2 7.1 9.8 -0.7 4.2-4.2 7.2-8.5 7.2 -0.5 0-0.9 0-1.4-0.1C99.7 97 36.3 86.3 32.4 30.8zM330.6 162.5c2.4 0.1 60.9 3.1 72.7 50 0.6 2.2 0.2 4.5-1 6.5 -1.2 2-3.1 3.4-5.3 3.9 -0.7 0.2-1.4 0.3-2.1 0.3 -3.9 0-7.4-2.7-8.3-6.5 -8.6-34.4-56.3-37-56.7-37 -2.3-0.1-4.4-1.1-6-2.8 -1.6-1.7-2.4-3.9-2.3-6.2 0.2-4.6 3.9-8.2 8.5-8.2L330.6 162.5zM73.7 179.7c-0.5 0-48.2 2.8-56.8 37 -1 3.8-4.4 6.5-8.3 6.5 -0.7 0-1.4-0.1-2.1-0.3 -2.2-0.5-4.1-1.9-5.3-3.9 -1.2-2-1.5-4.3-1-6.5 11.7-46.9 70.2-49.9 72.7-50l0.4 0c4.6 0 8.4 3.6 8.6 8.2C82.1 175.5 78.4 179.5 73.7 179.7zM160.9 49.1c-0.2-1.7-0.3-3.4-0.3-5.1 0-22.3 18.1-40.4 40.4-40.4 22.3 0 40.4 18.1 40.4 40.4 0 1.7-0.1 3.4-0.3 5.1 24.3 10.7 45.2 31.1 59.3 57.8l1.6 3.1 -3.1 1.6c-26.3 13.7-55.8 20.7-87.4 20.7l0 0c-46.8 0-86.8-15-106.5-24l-3.4-1.6 1.8-3.3C117.5 78.5 137.8 59.3 160.9 49.1zM116 298.2c1.1 4.6-1.7 9.3-6.2 10.4 -0.4 0.1-46.1 12.4-52 53 -0.6 4.2-4.3 7.4-8.5 7.4 -0.4 0-0.8 0-1.2-0.1 -4.7-0.7-7.9-5-7.3-9.7 7.6-52.3 62.5-66.6 64.8-67.2 0.7-0.2 1.4-0.3 2.1-0.3C111.6 291.7 115 294.4 116 298.2zM319.2 222.1c-1.4 0-2.8 0.2-4.2 0.2 2.6-12 4.1-24.5 4.1-37.5 0-22.9-4.3-44.9-12.7-65.2l-1.4-3.4 -3.3 1.7c-21.9 11.3-57.3 17.9-83.1 20.2l-2.4 0.2 -0.6 2.3c-7 27.1-11.2 60.3-13.6 91.2 -3.9-49-9.5-90.6-9.6-91.2l-0.4-2.9c-45-4.8-83.4-20.4-90.1-23.4l-3.2-1.4 -1.4 3.2c-9.4 21-14.3 44.9-14.3 68.9 0 79.6 53 144.3 118.1 144.3 8.7 0 17.1-1.2 25.2-3.4 5.1 46.8 44.8 83.4 93 83.4 51.6 0 93.5-42 93.5-93.5C412.8 264.1 370.8 222.1 319.2 222.1zM319.2 403c-48.1 0-87.3-39.2-87.3-87.3 0-48.1 39.2-87.3 87.3-87.3s87.3 39.2 87.3 87.3C406.5 363.8 367.4 403 319.2 403z"/></svg>
  </g>


  <g class="trash">
    <path d="M 2,41 v 6 h 42 v -6 h -10.5 l -3,-3 h -15 l -3,3 z" />
    <rect width="36" height="20" x="5" y="50" />
    <rect width="36" height="42" x="5" y="50" rx="4" ry="4" />
  </g>

  <g class="zoom">
    <circle r="11.5" cx="16" cy="108" />
    <circle r="4.3" cx="16" cy="108" class="center" />
    <path d="m 28,108 h3" />
    <path d="m 1,108 h3" />
    <path d="m 16,120 v3" />
    <path d="m 16,93 v3" />
  </g>

  <g class="zoom">
    <circle r="15" cx="48" cy="108" />
    <path d="m 48,101.6 v12.8" />
    <path d="m 41.6,108 h12.8" />
  </g>

  <g class="zoom">
    <circle r="15" cx="80" cy="108" />
    <path d="m 73.6,108 h12.8" />
  </g>

</svg>
